<?xml version="1.0" encoding="UTF-8"?> <svg xmlns="http://www.w3.org/2000/svg" xmlns:xlink="http://www.w3.org/1999/xlink" version="1.1" id="Capa_1" x="0px" y="0px" viewBox="0 0 296.7 70.7" style="enable-background:new 0 0 296.7 70.7;" xml:space="preserve"> <style type="text/css"> .st0{fill-rule:evenodd;clip-rule:evenodd;fill:#AAA8A9;} .st1{fill-rule:evenodd;clip-rule:evenodd;fill:#2F3372;} </style> <path class="st0" d="M27.8,47.5l-0.2-3.3c-0.4,1.3-1.1,2.2-2.1,2.9c-1,0.7-2.1,1-3.4,1c-2.6,0-4.5-1-5.7-3.1 c-1.2-2.1-1.8-5.3-1.8-9.6c0-4.3,0.6-7.5,1.9-9.4c1.3-2,3.3-2.9,6.1-2.9c2.2,0,3.8,0.7,5.1,1.9c1.2,1.3,1.8,3.1,1.9,5.5H27 c0-1.6-0.5-2.9-1.2-3.8c-0.8-0.9-1.8-1.3-3.2-1.3c-1.9,0-3.2,0.8-4,2.4c-0.8,1.6-1.2,4.4-1.2,8.4c0,3.2,0.4,5.6,1.2,7.1 c0.8,1.5,2.1,2.3,3.9,2.3c1.6,0,2.7-0.6,3.6-1.8c0.8-1.2,1.2-2.9,1.2-5.2c0-0.3,0-0.5,0-0.6c0-0.2,0-0.3,0-0.4l-5.4,0V35h8v12.5 H27.8z"></path> <path class="st0" d="M36.6,34.5h3.2c1.9,0,3.2-0.4,4.1-1.1c0.9-0.7,1.3-1.8,1.3-3.4c0-1.5-0.4-2.5-1.2-3.2c-0.8-0.7-2-1-3.7-1h-3.7 L36.6,34.5z M34,47.5V23.6h6.7c2.5,0,4.3,0.5,5.5,1.5c1.2,1,1.8,2.5,1.8,4.6c0,1.6-0.4,2.9-1.1,3.8c-0.7,1-1.9,1.6-3.4,2 c1.3,0.1,2.3,0.5,3,1.3c0.7,0.7,1.1,1.9,1.2,3.5c0,0.6,0.1,1.4,0.2,2.4c0.2,2.6,0.6,4.2,1.3,4.8h-3.3c-0.3-0.5-0.5-1.8-0.6-3.9 c-0.1-1-0.1-1.8-0.2-2.4c-0.1-1.7-0.6-2.8-1.3-3.4c-0.7-0.6-2-0.9-3.8-0.9h-3.4v10.6C36.6,47.5,34,47.5,34,47.5z"></path> <path class="st0" d="M52.6,23.6h2.7l0,16.1c0,2.2,0.3,3.8,1,4.7c0.6,0.9,1.7,1.3,3.2,1.3c1.5,0,2.7-0.5,3.4-1.4 c0.7-1,1.1-2.5,1.1-4.5V23.6h2.6v15.6c0,2-0.1,3.4-0.3,4.3c-0.2,0.8-0.6,1.6-1.2,2.2c-0.7,0.8-1.5,1.4-2.4,1.8c-1,0.4-2,0.6-3.3,0.6 c-1.2,0-2.4-0.2-3.4-0.6c-1-0.4-1.8-1-2.4-1.8c-0.4-0.5-0.7-1.2-0.9-2.1c-0.2-0.8-0.3-2.3-0.3-4.3L52.6,23.6L52.6,23.6z"></path> <path class="st0" d="M73.5,35H77c1.6,0,2.8-0.4,3.6-1.2c0.8-0.8,1.1-2,1.1-3.6c0-1.5-0.4-2.6-1.1-3.3c-0.8-0.7-2-1-3.7-1h-3.3V35z M70.8,47.5V23.6H77c2.6,0,4.5,0.5,5.7,1.6c1.2,1.1,1.8,2.8,1.8,5.1c0,2.4-0.6,4.2-1.9,5.4c-1.2,1.2-3.1,1.8-5.5,1.8h-3.6l0,10H70.8 z"></path> <path class="st0" d="M89.9,35.5c0,3.8,0.4,6.5,1.1,8c0.7,1.5,2,2.2,3.8,2.2c1.8,0,3.1-0.7,3.8-2.2c0.7-1.4,1.1-4.1,1.1-8 c0-3.9-0.4-6.6-1.1-8c-0.7-1.4-2-2.1-3.8-2.1c-1.8,0-3.1,0.7-3.8,2.2C90.3,29.1,89.9,31.7,89.9,35.5 M87.2,35.5 c0-4.4,0.6-7.6,1.8-9.6c1.2-1.9,3.1-2.9,5.8-2.9c2.7,0,4.7,1,5.9,2.9c1.2,1.9,1.8,5.1,1.8,9.6c0,4.5-0.6,7.7-1.8,9.6 c-1.2,1.9-3.1,2.9-5.9,2.9c-2.7,0-4.6-1-5.8-2.9C87.8,43.1,87.2,40,87.2,35.5"></path> <polygon class="st0" points="123.5,34.2 118.1,29.9 111.3,24.5 110.6,24 110.6,44.5 111.3,43.9 118.1,38.5 "></polygon> <path class="st1" d="M147.9,9.5c-1.3-1.3-3.1-2.3-5.1-2.9c-2.1-0.6-4.9-0.9-8.4-0.9l-20.9,0v14.4l9.6,7.7l0.9,0.7V14.2l4.6,0 c2.1,0,7.3,0.1,8.3,0.4c1,0.3,1.8,0.7,2.4,1.4c1.2,1.3,2,3.2,2.5,5.8c0.5,2.5,0.8,6.6,0.8,12.2c0,5.7-0.2,9.9-0.6,12.5 c-0.4,2.6-1.1,4.7-2.1,6.1c-0.6,0.9-1.3,1.5-2.3,1.8c-1,0.3-6.3,0.5-8.7,0.5H124V40.6l-0.9,0.7l-9.6,7.7v14.4h18.4 c5.8,0,9.9-0.5,12.2-1.4c2.4-0.9,4.2-2.6,5.5-4.9c1.4-2.4,2.3-5.2,2.9-8.6c0.6-3.4,0.9-9.2,0.9-17.3c0-6.3-0.4-11-1.3-14 C151.4,14,150,11.5,147.9,9.5"></path> <rect x="162.2" y="5.7" class="st1" width="10.7" height="57.6"></rect> <path class="st1" d="M205.2,30.9l-5.9-4l-0.1-0.1c-4.4-2.9-6.6-5.6-6.6-8c0-1.8,0.5-3.2,1.5-4.2c1-1,2.3-1.5,4.1-1.5 c2.3,0,4,0.7,5.1,2c1,1.3,1.5,3.6,1.5,6.7v1.5h10.2c0-0.2,0-0.5,0.1-0.8c0-0.3,0-0.7,0-1.3c0-5.5-1.4-9.6-4.3-12.6 c-2.8-2.9-6.9-4.4-12.3-4.4c-5,0-9,1.4-11.9,4.1c-2.9,2.7-4.3,6.5-4.3,11.4c0,3.2,0.7,5.9,1.9,8.1c1.3,2.1,4.3,4.9,9,8.1l5.5,3.9 c2.7,1.9,4.5,3.5,5.4,4.8c0.8,1.2,1.2,2.7,1.2,4.4c0,2.2-0.6,3.9-1.8,5.1c-1.2,1.2-2.9,1.7-5.2,1.7c-2.2,0-3.7-0.6-4.6-1.9 c-0.9-1.3-1.3-3.7-1.3-7.2v-3.7h-10.7v0.2c-0.1,1.5-0.2,2.6-0.2,3.2c0,6.1,1.4,10.7,4.2,13.7c2.8,3,7.1,4.5,12.9,4.5 c5.6,0,9.8-1.4,12.8-4.3c3-2.8,4.5-6.9,4.5-12.1c0-3.8-0.7-7-2.2-9.5C212.2,36.4,209.4,33.7,205.2,30.9"></path> <path class="st1" d="M235.9,40.2l4.5-24.2l4.6,24.2H235.9z M233.4,5.7l-13,57.6h11l2.8-14.5h12.3l2.8,14.5l11.6,0L247.9,5.7H233.4z"></path> <polygon class="st1" points="277.3,53.5 277.3,5.7 266.6,5.7 266.6,63.3 290,63.3 290,53.5 "></polygon> </svg> 